<svg xmlns="http://www.w3.org/2000/svg">
  <symbol id="icon-account" viewBox="0 0 32 32">
    <path d="M8.967 7.033c0 3.878 3.155 7.033 7.033 7.033s7.033-3.155 7.033-7.033-3.155-7.033-7.033-7.033-7.033 3.155-7.033 7.033z"></path>
    <path d="M4.792 32h22.417c0.928 0 1.681-0.753 1.681-1.681 0-7.107-5.782-12.89-12.89-12.89s-12.89 5.782-12.89 12.89c0 0.928 0.753 1.681 1.681 1.681z"></path>
  </symbol>
  <symbol id="icon-arrow-dropdown" viewBox="0 0 32 32">
    <path fill="#2ab0ca" style="fill: var(--color1, #2ab0ca)" d="M31.088 7.299c-0.55-0.557-1.314-0.902-2.158-0.902s-1.608 0.345-2.158 0.902l-0 0-10.787 10.88-10.794-10.88c-0.55-0.557-1.314-0.902-2.158-0.902s-1.608 0.345-2.158 0.902l-0 0c-0.552 0.56-0.893 1.329-0.893 2.178s0.341 1.618 0.894 2.178l-0-0 12.947 13.072c0.55 0.557 1.314 0.902 2.158 0.902s1.608-0.345 2.158-0.902l0-0 12.944-13.072c0.554-0.56 0.896-1.33 0.896-2.181 0-0.847-0.34-1.615-0.891-2.175l0 0z"></path>
  </symbol>
  <symbol id="icon-bell" viewBox="0 0 32 32">
    <path d="M12.207 28.181c-0 0.008-0.001 0.017-0.001 0.025 0 2.095 1.699 3.794 3.794 3.794s3.794-1.699 3.794-3.794c0-0.008-0.001-0.017-0.001-0.025h-7.587z"></path>
    <path d="M28.114 23.438l-3.415-5.016c0-1.535 0-5.288 0-6.258 0-4.22-3.006-7.738-6.993-8.531v-1.927c-0-0.942-0.764-1.706-1.706-1.706s-1.706 0.764-1.706 1.706v1.927c-3.987 0.793-6.993 4.311-6.993 8.531 0 1.652 0 5.3 0 6.258l-3.415 5.016c-0.36 0.528-0.398 1.212-0.099 1.777s0.886 0.918 1.525 0.918h21.375c0.639 0 1.226-0.353 1.525-0.918s0.261-1.249-0.099-1.777z"></path>
  </symbol>
  <symbol id="icon-campaign-manager" viewBox="0 0 32 32">
    <path d="M31.172 14.011l-3.763-3.763c-1.548-1.548-0.602-3.181 1.085-3.28 2.778-0.172 4.339-3.135 2.070-5.602-2.467-2.262-5.417-0.708-5.588 2.063-0.106 1.686-1.753 2.639-3.294 1.098l-3.684-3.684c-1.104-1.104-2.897-1.104-4.001 0l-3.73 3.73c-1.548 1.548-3.188 0.589-3.294-1.098-0.172-2.778-3.148-4.358-5.615-2.090-2.275 2.474-0.694 5.45 2.083 5.622 1.686 0.106 2.645 1.753 1.104 3.3l-3.717 3.71c-1.104 1.104-1.104 2.897 0 4.001l3.684 3.684c1.548 1.541 0.628 3.148-1.058 3.254-2.778 0.172-4.332 3.128-2.063 5.595 2.467 2.268 5.41 0.721 5.582-2.057 0.106-1.686 1.72-2.612 3.267-1.071l3.717 3.717c1.124 1.124 2.963 1.124 4.087 0.007l3.723-3.723c1.462-1.528 0.516-3.135-1.151-3.241-2.778-0.172-4.352-3.148-2.083-5.615 2.467-2.268 5.443-0.688 5.615 2.090 0.106 1.667 1.706 2.606 3.234 1.144l3.737-3.737c0.007-0.007 0.007-0.007 0.013-0.013l0.040-0.040c1.104-1.104 1.104-2.897 0-4.001z"></path>
  </symbol>
  <symbol id="icon-campaigns" viewBox="0 0 32 32">
    <path d="M10.45 4.88c0.518 0 0.938-0.42 0.938-0.938v-3.005c0-0.518-0.42-0.938-0.938-0.938s-0.938 0.42-0.938 0.938v3.005c0 0.518 0.42 0.938 0.938 0.938z"></path>
    <path d="M6.296 5.622c0.183 0.183 0.423 0.275 0.663 0.275s0.48-0.092 0.663-0.275c0.366-0.366 0.366-0.96 0-1.326l-2.21-2.209c-0.366-0.366-0.96-0.366-1.326 0s-0.366 0.959 0 1.326z"></path>
    <path d="M6.88 8.45c0-0.518-0.42-0.938-0.938-0.938h-3.005c-0.518 0-0.938 0.42-0.938 0.938s0.42 0.938 0.938 0.938h3.005c0.518 0 0.938-0.42 0.938-0.938z"></path>
    <path d="M14.568 27.199c-0.531 0.531-0.824 1.238-0.824 1.989s0.292 1.458 0.824 1.989 1.238 0.824 1.989 0.824c0.751 0 1.458-0.293 1.989-0.824l2.957-2.957-4.94-3.015z"></path>
    <path d="M29.989 22.723l-8.996-14.739-11.009 11.009 14.739 8.996c0.151 0.093 0.32 0.137 0.488 0.137 0.242 0 0.482-0.094 0.663-0.275l3.978-3.978c0.306-0.306 0.363-0.782 0.137-1.151z"></path>
    <path d="M19.466 2.882c-1.096-1.097-2.881-1.097-3.978 0l-10.606 10.606c-1.097 1.097-1.097 2.881 0 3.978 0.548 0.548 1.269 0.823 1.989 0.823s1.44-0.274 1.989-0.823l10.607-10.606c1.097-1.097 1.097-2.881 0-3.978z"></path>
  </symbol>
  <symbol id="icon-circle" viewBox="0 0 32 32">
    <path fill="none" stroke="#33bcd7" style="stroke: var(--color2, #33bcd7)" stroke-linejoin="miter" stroke-linecap="butt" stroke-miterlimit="4" stroke-width="9.6" d="M28.308 16c0 6.797-5.51 12.308-12.308 12.308s-12.308-5.51-12.308-12.308c0-6.797 5.51-12.308 12.308-12.308s12.308 5.51 12.308 12.308z"></path>
  </symbol>
  <symbol id="icon-click" viewBox="0 0 32 32">
    <path d="M26.423 31.725l-5.47-5.469-2.651 2.651c-0.229 0.229-0.561 0.323-0.878 0.25-0.317-0.075-0.571-0.308-0.674-0.616l-5.304-15.91c-0.113-0.337-0.025-0.709 0.226-0.96s0.623-0.341 0.96-0.226l15.91 5.304c0.309 0.103 0.541 0.357 0.616 0.674s-0.020 0.648-0.25 0.878l-2.651 2.651 5.469 5.47c0.366 0.366 0.366 0.959 0 1.326l-3.977 3.977c-0.366 0.366-0.959 0.366-1.326 0z"></path>
    <path d="M12.188 7.5c-0.518 0-0.938-0.419-0.938-0.938v-5.625c0-0.518 0.419-0.938 0.938-0.938s0.938 0.419 0.938 0.938v5.625c0 0.518-0.419 0.938-0.938 0.938z"></path>
    <path d="M7.548 8.873l-3.978-3.978c-0.366-0.366-0.366-0.96 0-1.326s0.959-0.366 1.326 0l3.978 3.978c0.366 0.366 0.366 0.96 0 1.326s-0.959 0.366-1.326 0z"></path>
    <path d="M3.57 20.805c-0.366-0.366-0.366-0.959 0-1.326l3.978-3.978c0.366-0.366 0.96-0.366 1.326 0s0.366 0.959 0 1.326l-3.978 3.978c-0.366 0.366-0.959 0.366-1.326 0z"></path>
    <path d="M15.502 8.873c-0.366-0.366-0.366-0.96 0-1.326l3.978-3.978c0.366-0.366 0.959-0.366 1.326 0s0.366 0.959 0 1.326l-3.978 3.978c-0.366 0.366-0.959 0.366-1.326 0z"></path>
    <path d="M6.563 13.125h-5.625c-0.518 0-0.938-0.419-0.938-0.938s0.419-0.938 0.938-0.938h5.625c0.518 0 0.938 0.419 0.938 0.938s-0.419 0.938-0.938 0.938z"></path>
  </symbol>
  <symbol id="icon-copy" viewBox="0 0 32 32">
    <path d="M2.185 10.861v16c0 1.597 1.312 2.909 2.909 2.909h16c1.603 0 2.909-1.312 2.909-2.909v-16c0-1.603-1.306-2.909-2.909-2.909h-16c-1.597 0-2.909 1.306-2.909 2.909zM4.392 10.159h17.409v17.409h-17.409v-17.409z"></path>
    <path d="M10.558 2.23c-0.61 0-1.101 0.496-1.101 1.101v0c0 0.61 0.496 1.101 1.101 1.101h17.055v15.504c0 0.61 0.496 1.101 1.101 1.101v0c0.61 0 1.101-0.496 1.101-1.101v-14.796c0-1.597-1.312-2.909-2.909-2.909h-16.348z"></path>
  </symbol>
  <symbol id="icon-edit" viewBox="0 0 32 32">
    <path stroke-linejoin="miter" stroke-linecap="butt" stroke-miterlimit="10" stroke-width="0.5" d="M32 30.75c0 0.688-0.563 1.25-1.25 1.25h-14.75c-0.688 0-1.25-0.563-1.25-1.25s0.563-1.25 1.25-1.25h14.75c0.688 0 1.25 0.563 1.25 1.25zM30.75 24.581h-9.831c-0.688 0-1.25 0.563-1.25 1.25s0.563 1.25 1.25 1.25h9.831c0.688 0 1.25-0.563 1.25-1.25s-0.563-1.25-1.25-1.25zM30.75 19.669h-4.919c-0.688 0-1.25 0.563-1.25 1.25s0.563 1.25 1.25 1.25h4.919c0.688 0 1.25-0.563 1.25-1.25s-0.563-1.25-1.25-1.25zM31.631 9.506l-22.125 22.125c-0.238 0.238-0.55 0.369-0.881 0.369h-7.375c-0.688 0-1.25-0.563-1.25-1.25v-7.375c0-0.331 0.131-0.65 0.369-0.881l22.125-22.125c0.488-0.487 1.281-0.487 1.769 0l7.375 7.375c0.487 0.488 0.487 1.275-0.006 1.762zM28.981 8.625l-5.606-5.606-20.875 20.875v5.606h5.606l20.875-20.875z"></path>
  </symbol>
  <symbol id="icon-email" viewBox="0 0 32 32">
    <path d="M2.045 23.818c0 1.285 1.041 2.326 2.326 2.326h23.259c1.285 0 2.326-1.041 2.326-2.326v-15.7c0-1.285-1.041-2.326-2.326-2.326h-23.259c-1.285 0-2.326 1.041-2.326 2.326v15.7zM10.604 15.986l-5.321-5.355c-0.441-0.442-0.441-1.157 0-1.599 0.442-0.442 1.158-0.442 1.599 0l8.49 8.501c0.343 0.337 0.907 0.337 1.245 0l8.501-8.501c0.442-0.442 1.157-0.442 1.599 0s0.442 1.157 0 1.599l-5.326 5.355 5.326 5.32c0.442 0.442 0.442 1.157 0 1.599s-1.157 0.442-1.599 0l-5.321-5.314c0 0-1.663 1.692-1.965 1.994-0.471 0.459-1.123 0.744-1.832 0.744-0.721 0-1.372-0.291-1.843-0.762-0.308-0.302-1.96-1.977-1.96-1.977l-5.315 5.314c-0.441 0.442-1.157 0.442-1.599 0-0.441-0.442-0.441-1.157 0-1.599l5.321-5.32z"></path>
  </symbol>
  <symbol id="icon-help" viewBox="0 0 32 32">
    <path d="M16.001 0c-8.834 0-16 7.157-16 15.992 0 8.843 7.166 16.008 16 16.008 8.838 0 15.999-7.166 15.999-16.008 0-8.834-7.16-15.992-15.999-15.992zM17.141 24.894c-0.372 0.331-0.802 0.497-1.29 0.497-0.505 0-0.945-0.163-1.321-0.49s-0.565-0.784-0.565-1.371c0-0.521 0.182-0.959 0.546-1.315s0.81-0.533 1.34-0.533c0.521 0 0.959 0.178 1.315 0.533s0.534 0.794 0.534 1.315c-0.001 0.579-0.187 1.034-0.559 1.364zM21.774 13.407c-0.285 0.529-0.625 0.986-1.018 1.371-0.392 0.385-1.097 1.032-2.115 1.941-0.281 0.257-0.507 0.482-0.676 0.676s-0.296 0.372-0.378 0.534c-0.083 0.161-0.147 0.323-0.192 0.484s-0.113 0.445-0.205 0.85c-0.157 0.86-0.649 1.29-1.476 1.29-0.43 0-0.791-0.14-1.086-0.422-0.293-0.281-0.44-0.699-0.44-1.253 0-0.694 0.108-1.296 0.323-1.805 0.214-0.509 0.5-0.955 0.855-1.34s0.835-0.841 1.44-1.371c0.529-0.463 0.912-0.813 1.147-1.048s0.434-0.499 0.595-0.788c0.162-0.29 0.242-0.604 0.242-0.943 0-0.662-0.245-1.22-0.738-1.674s-1.127-0.682-1.905-0.682c-0.91 0-1.58 0.229-2.010 0.688s-0.793 1.135-1.091 2.028c-0.282 0.935-0.816 1.402-1.6 1.402-0.463 0-0.854-0.163-1.173-0.49s-0.477-0.68-0.477-1.061c0-0.785 0.252-1.582 0.757-2.388s1.241-1.474 2.209-2.003c0.967-0.529 2.097-0.795 3.386-0.795 1.199 0 2.258 0.222 3.175 0.664s1.627 1.044 2.128 1.805c0.5 0.761 0.75 1.588 0.75 2.481 0.001 0.702-0.142 1.318-0.427 1.847z"></path>
  </symbol>
  <symbol id="icon-image-gallery" viewBox="0 0 32 32">
    <path d="M4.923 21.467v-13.765h-2.109c-1.559 0-2.814 1.275-2.814 2.832v18.611c0 1.559 1.255 2.82 2.814 2.82h18.611c1.558 0 2.838-1.261 2.838-2.82v-2.033h-13.696c-3.095 0.001-5.645-2.549-5.645-5.645z"></path>
    <path d="M29.18 0.035h-18.612c-1.558 0-2.831 1.262-2.831 2.82v18.611c0 1.56 1.273 2.831 2.831 2.831h18.612c1.557 0 2.82-1.271 2.82-2.831v-18.611c0-1.559-1.263-2.821-2.82-2.821zM28.797 19.904c-0.155 0.287-0.454 0.457-0.78 0.457h-15.948c-0.281 0-0.544-0.125-0.711-0.349-0.167-0.226-0.218-0.512-0.137-0.782l2.281-7.546c0.15-0.496 0.569-0.863 1.082-0.948s1.028 0.132 1.328 0.555l3.19 4.481c0.43 0.604 1.262 0.753 1.872 0.337l2.937-1.995c0.302-0.205 0.673-0.28 1.030-0.208 0.359 0.071 0.673 0.284 0.872 0.59l2.944 4.506c0.178 0.274 0.193 0.616 0.038 0.902z"></path>
  </symbol>
  <symbol id="icon-increase-decrease" viewBox="0 0 32 32">
    <path d="M29.105 15.010l-2.019-7.619c0-0.038 0-0.076-0.038-0.114v0c-0.114-0.419-0.381-0.762-0.762-0.99-0.343-0.19-0.8-0.267-1.219-0.152-0.038 0-0.076 0.038-0.114 0.038l-7.619 2.019c-0.838 0.229-1.371 1.105-1.143 1.943s1.105 1.371 1.943 1.143l3.962-1.067-6.476 11.238-3.962-4.114c-0.038-0.038-0.038-0.076-0.076-0.114v0c-0.305-0.305-0.724-0.495-1.143-0.495s-0.838 0.152-1.143 0.457c-0.038 0.038-0.038 0.076-0.076 0.114l-5.638 5.524c-0.648 0.61-0.648 1.638-0.038 2.248 0.61 0.648 1.638 0.648 2.248 0.038l4.571-4.495 4.343 4.419c0.114 0.19 0.305 0.343 0.495 0.457 0.762 0.457 1.752 0.19 2.171-0.571l7.543-13.067 1.067 4c0.229 0.838 1.105 1.371 1.943 1.143 0.914-0.229 1.41-1.105 1.181-1.981z"></path>
  </symbol>
  <symbol id="icon-monthly-calendar" viewBox="0 0 32 32">
    <path d="M28.649 3.872h-2.433v-1.66c0-1.221-0.99-2.211-2.211-2.211h-0.088c-1.221 0-2.211 0.99-2.211 2.211v1.66h-11.411v-1.66c0-1.221-0.99-2.211-2.211-2.211h-0.088c-1.221 0-2.211 0.99-2.211 2.211v1.66h-2.433c-1.221 0-2.211 0.99-2.211 2.211v23.706c0 1.221 0.99 2.211 2.211 2.211h25.298c1.221 0 2.211-0.99 2.211-2.211v-23.706c0-1.221-0.99-2.211-2.211-2.211zM27.145 28.506h-22.29v-17.956h22.29v17.956z"></path>
    <path d="M7.884 18.676h3.848c0.195 0 0.354-0.158 0.354-0.354v-3.848c0-0.195-0.158-0.354-0.354-0.354h-3.848c-0.195 0-0.354 0.158-0.354 0.354v3.848c0 0.195 0.158 0.354 0.354 0.354z"></path>
    <path d="M14.076 18.676h3.848c0.195 0 0.354-0.158 0.354-0.354v-3.848c0-0.195-0.158-0.354-0.354-0.354h-3.848c-0.195 0-0.354 0.158-0.354 0.354v3.848c0 0.195 0.158 0.354 0.354 0.354z"></path>
    <path d="M20.268 18.676h3.848c0.195 0 0.354-0.158 0.354-0.354v-3.848c0-0.195-0.158-0.354-0.354-0.354h-3.848c-0.195 0-0.354 0.158-0.354 0.354v3.848c0 0.195 0.158 0.354 0.354 0.354z"></path>
    <path d="M7.884 24.867h3.848c0.195 0 0.354-0.158 0.354-0.354v-3.848c0-0.195-0.158-0.354-0.354-0.354h-3.848c-0.195 0-0.354 0.158-0.354 0.354v3.848c0 0.195 0.158 0.354 0.354 0.354z"></path>
    <path d="M14.076 24.867h3.848c0.195 0 0.354-0.158 0.354-0.354v-3.848c0-0.195-0.158-0.354-0.354-0.354h-3.848c-0.195 0-0.354 0.158-0.354 0.354v3.848c0 0.195 0.158 0.354 0.354 0.354z"></path>
    <path d="M20.268 24.867h3.848c0.195 0 0.354-0.158 0.354-0.354v-3.848c0-0.195-0.158-0.354-0.354-0.354h-3.848c-0.195 0-0.354 0.158-0.354 0.354v3.848c0 0.195 0.158 0.354 0.354 0.354z"></path>
  </symbol>
  <symbol id="icon-paths" viewBox="0 0 32 32">
    <path d="M31.637 23.231l-6-5c-0.3-0.25-0.712-0.3-1.063-0.137-0.35 0.169-0.575 0.519-0.575 0.906v3h-1.675c-1.387 0-2.656-0.706-3.394-1.881l-6.475-10.363c-1.469-2.35-4.006-3.756-6.781-3.756h-3.675c-1.106 0-2 0.894-2 2v0c0 1.106 0.894 2 2 2h3.675c1.388 0 2.656 0.706 3.394 1.881l6.475 10.363c1.475 2.356 4.006 3.762 6.781 3.762h1.675v3c0 0.387 0.225 0.738 0.575 0.906 0.131 0.063 0.281 0.094 0.425 0.094 0.231 0 0.456-0.075 0.637-0.231l6-5c0.231-0.188 0.363-0.475 0.363-0.769s-0.131-0.587-0.363-0.775z"></path>
    <path d="M31.637 7.231l-6-5c-0.3-0.25-0.712-0.3-1.063-0.138s-0.575 0.519-0.575 0.906v3h-1.675c-2.775 0-5.313 1.406-6.781 3.762l-0.363 0.581 2.356 3.775 1.394-2.231c0.738-1.175 2.006-1.881 3.394-1.881h1.675v3c0 0.387 0.225 0.744 0.575 0.906 0.131 0.063 0.281 0.094 0.425 0.094 0.231 0 0.456-0.081 0.637-0.231l6-5c0.231-0.188 0.363-0.475 0.363-0.769 0-0.3-0.131-0.588-0.363-0.775z"></path>
    <path d="M10.463 17.887l-1.394 2.231c-0.738 1.175-2.006 1.881-3.394 1.881h-3.675c-1.106 0-2 0.894-2 2v0c0 1.106 0.894 2 2 2h3.675c2.775 0 5.313-1.406 6.781-3.762l0.363-0.581-2.356-3.769z"></path>
  </symbol>
  <symbol id="icon-products" viewBox="0 0 32 32">
    <path d="M23.78 12.257l-6.459-9.688c-0.294-0.294-0.734-0.587-1.174-0.587s-0.881 0.147-1.174 0.587l-6.459 9.688h-7.046c-0.881 0-1.468 0.587-1.468 1.468 0 0.147 0 0.294 0 0.44l3.67 13.651c0.294 1.174 1.468 2.202 2.789 2.202h19.083c1.321 0 2.495-0.881 2.789-2.202l3.67-13.651c0-0.147 0-0.294 0-0.44 0-0.881-0.587-1.468-1.468-1.468h-6.752zM11.743 12.257l4.404-6.459 4.404 6.459h-8.807zM16.147 24c-1.615 0-2.936-1.321-2.936-2.936s1.321-2.936 2.936-2.936 2.936 1.321 2.936 2.936-1.321 2.936-2.936 2.936z"></path>
  </symbol>
  <symbol id="icon-responders" viewBox="0 0 32 32">
    <path d="M31.054 14.626c-1.929-4.798-7.137-7.196-15.625-7.196h-4v-4.571c0-0.31-0.113-0.578-0.339-0.804s-0.494-0.339-0.804-0.339c-0.31 0-0.578 0.113-0.804 0.339l-9.143 9.143c-0.226 0.226-0.339 0.494-0.339 0.804s0.113 0.577 0.339 0.804l9.143 9.143c0.226 0.226 0.494 0.34 0.804 0.34s0.577-0.113 0.804-0.34c0.226-0.226 0.339-0.494 0.339-0.804v-4.572h4c1.166 0 2.211 0.036 3.133 0.107s1.84 0.199 2.75 0.384c0.911 0.184 1.703 0.437 2.375 0.759s1.301 0.735 1.884 1.241c0.583 0.506 1.060 1.107 1.429 1.804s0.658 1.521 0.866 2.473c0.208 0.953 0.313 2.030 0.313 3.232 0 0.655-0.030 1.387-0.089 2.196 0 0.071-0.015 0.211-0.045 0.42s-0.045 0.366-0.045 0.473c0 0.178 0.051 0.327 0.152 0.446s0.241 0.178 0.42 0.178c0.191 0 0.357-0.101 0.5-0.304 0.083-0.107 0.16-0.238 0.232-0.393s0.152-0.333 0.241-0.535c0.090-0.202 0.152-0.345 0.188-0.428 1.512-3.392 2.268-6.077 2.268-8.053-0-2.369-0.315-4.351-0.946-5.946z"></path>
  </symbol>
  <symbol id="icon-settings" viewBox="0 0 32 32">
    <path d="M31.288 13.287l-3.744-0.919c-0.206-0.656-0.469-1.294-0.788-1.912l1.913-3.188c0.225-0.375 0.169-0.844-0.131-1.144l-2.663-2.663c-0.3-0.3-0.769-0.356-1.144-0.131l-3.188 1.912c-0.619-0.319-1.256-0.581-1.913-0.787l-0.9-3.744c-0.113-0.412-0.488-0.713-0.919-0.713h-3.75c-0.431 0-0.806 0.3-0.919 0.713l-0.9 3.744c-0.656 0.206-1.294 0.469-1.912 0.787l-3.188-1.913c-0.375-0.225-0.844-0.169-1.144 0.131l-2.663 2.662c-0.3 0.3-0.356 0.769-0.131 1.144l1.912 3.188c-0.319 0.619-0.581 1.256-0.787 1.912l-3.619 0.919c-0.412 0.094-0.713 0.469-0.713 0.9v3.75c0 0.431 0.3 0.806 0.713 0.9l3.619 0.919c0.206 0.656 0.469 1.294 0.787 1.913l-1.913 3.188c-0.225 0.375-0.169 0.844 0.131 1.144l2.662 2.663c0.3 0.3 0.769 0.356 1.144 0.131l3.188-1.913c0.619 0.319 1.256 0.581 1.912 0.788l0.9 3.619c0.113 0.413 0.488 0.712 0.919 0.712h3.75c0.431 0 0.806-0.3 0.919-0.712l0.9-3.619c0.656-0.206 1.294-0.469 1.913-0.788l3.188 1.913c0.375 0.225 0.844 0.169 1.144-0.131l2.663-2.663c0.3-0.3 0.356-0.769 0.131-1.144l-1.913-3.188c0.319-0.619 0.581-1.256 0.788-1.913l3.744-0.919c0.413-0.094 0.712-0.469 0.712-0.9v-3.75c0-0.431-0.3-0.806-0.712-0.9zM15.938 20.75c-2.588 0-4.688-2.1-4.688-4.688s2.1-4.688 4.688-4.688c2.587 0 4.688 2.1 4.688 4.688s-2.1 4.688-4.688 4.688z"></path>
  </symbol>
  <symbol id="icon-speaker" viewBox="0 0 32 32">
    <path d="M16 25.979c0 0.551-0.31 1.067-0.826 1.308-0.206 0.103-0.413 0.138-0.619 0.138-0.344 0-0.654-0.103-0.929-0.344l-7.948-6.572h-4.232c-0.791 0-1.445-0.654-1.445-1.445v-5.781c0-0.791 0.654-1.445 1.445-1.445h4.232l7.948-6.572c0.447-0.344 1.032-0.447 1.548-0.206s0.826 0.757 0.826 1.308v19.613zM21.609 23.708c-0.034 0-0.069 0-0.103 0-0.378 0-0.757-0.138-1.032-0.413l-0.206-0.206c-0.516-0.516-0.585-1.308-0.138-1.892 1.101-1.48 1.652-3.2 1.652-5.024 0-1.961-0.654-3.819-1.892-5.333-0.482-0.585-0.413-1.411 0.103-1.927l0.206-0.206c0.275-0.275 0.688-0.447 1.101-0.413s0.791 0.206 1.067 0.516c1.72 2.099 2.615 4.645 2.615 7.363 0 2.546-0.791 4.955-2.305 6.951-0.275 0.344-0.654 0.551-1.067 0.585zM27.63 28.215c-0.275 0.31-0.654 0.482-1.067 0.516-0.034 0-0.034 0-0.069 0-0.378 0-0.757-0.138-1.032-0.413l-0.206-0.206c-0.551-0.551-0.585-1.376-0.069-1.961 2.34-2.787 3.647-6.331 3.647-9.979 0-3.785-1.376-7.432-3.888-10.254-0.516-0.585-0.482-1.445 0.069-1.996l0.206-0.206c0.275-0.275 0.654-0.447 1.067-0.413 0.413 0 0.791 0.172 1.032 0.482 3.028 3.406 4.68 7.811 4.68 12.387 0 4.404-1.548 8.671-4.37 12.043z"></path>
  </symbol>
  <symbol id="icon-speech-bubble" viewBox="0 0 32 32">
    <path d="M15.813 17.466c-1.723 0-3.125-1.402-3.125-3.125v-1.875h-11.438c-0.69 0-1.25 0.56-1.25 1.25v9.938c0 0.69 0.56 1.25 1.25 1.25h3.313v3.316c0 0.373 0.306 0.626 0.629 0.626 0.14 0 0.284-0.048 0.407-0.155l4.356-3.788h6.234c0.69 0 1.25-0.56 1.25-1.25v-6.188h-1.625zM3.75 15.904h5.125c0.518 0 0.938 0.42 0.938 0.937s-0.42 0.938-0.938 0.938h-5.125c-0.518 0-0.938-0.42-0.938-0.938s0.42-0.938 0.938-0.938zM13.688 21.529h-9.938c-0.518 0-0.938-0.42-0.938-0.938s0.42-0.938 0.938-0.938h9.938c0.518 0 0.938 0.42 0.938 0.938s-0.42 0.938-0.938 0.938z"></path>
    <path d="M30.75 3.154h-14.938c-0.69 0-1.25 0.56-1.25 1.25v9.938c0 0.69 0.56 1.25 1.25 1.25h6.234l4.356 3.788c0.123 0.107 0.266 0.155 0.407 0.155 0.322 0 0.629-0.253 0.629-0.626v-3.316h3.313c0.69 0 1.25-0.56 1.25-1.25v-9.938c-0-0.69-0.56-1.25-1.25-1.25zM18.313 6.591h5.125c0.518 0 0.938 0.42 0.938 0.938s-0.42 0.938-0.938 0.938h-5.125c-0.518 0-0.938-0.42-0.938-0.938s0.42-0.938 0.938-0.938zM28.25 12.216h-9.938c-0.518 0-0.938-0.42-0.938-0.938s0.42-0.938 0.938-0.938h9.938c0.518 0 0.938 0.42 0.938 0.938s-0.42 0.938-0.938 0.938z"></path>
  </symbol>
  <symbol id="icon-statistics" viewBox="0 0 32 32">
    <path d="M7.782 14.957h-6.739c-0.576 0-1.044 0.467-1.044 1.043v13.478c0 0.576 0.467 1.044 1.044 1.044h6.739c0.576 0 1.044-0.467 1.044-1.044v-13.478c-0-0.576-0.467-1.043-1.043-1.043z"></path>
    <path d="M19.369 1.479h-6.739c-0.576 0-1.043 0.467-1.043 1.043v26.956c0 0.576 0.467 1.044 1.043 1.044h6.739c0.576 0 1.044-0.467 1.044-1.043v-26.956c-0-0.576-0.467-1.043-1.044-1.043z"></path>
    <path d="M30.956 8.217h-6.739c-0.576 0-1.044 0.467-1.044 1.043v20.217c0 0.576 0.467 1.044 1.044 1.044h6.739c0.576 0 1.043-0.467 1.043-1.044v-20.217c-0-0.576-0.467-1.043-1.044-1.043z"></path>
  </symbol>
  <symbol id="icon-styles" viewBox="0 0 32 32">
    <path d="M16 0c-8.889 0-16 7.111-16 16s7.111 16 16 16c1.422 0 2.667-1.244 2.667-2.667 0-0.711-0.178-1.244-0.711-1.778-0.356-0.533-0.711-1.067-0.711-1.778 0-1.422 1.244-2.667 2.667-2.667h3.2c4.978 0 8.889-3.911 8.889-8.889 0-7.822-7.111-14.222-16-14.222zM6.222 16c-1.422 0-2.667-1.244-2.667-2.667s1.244-2.667 2.667-2.667 2.667 1.244 2.667 2.667-1.244 2.667-2.667 2.667zM11.556 8.889c-1.422 0-2.667-1.244-2.667-2.667s1.244-2.667 2.667-2.667 2.667 1.244 2.667 2.667-1.244 2.667-2.667 2.667zM20.444 8.889c-1.422 0-2.667-1.244-2.667-2.667s1.244-2.667 2.667-2.667 2.667 1.244 2.667 2.667-1.244 2.667-2.667 2.667zM25.778 16c-1.422 0-2.667-1.244-2.667-2.667s1.244-2.667 2.667-2.667 2.667 1.244 2.667 2.667-1.244 2.667-2.667 2.667z"></path>
  </symbol>
  <symbol id="icon-telephone" viewBox="0 0 32 32">
    <path d="M24.33 21.167c-1.045-1.032-2.35-1.032-3.389 0-0.792 0.786-1.585 1.571-2.364 2.37-0.213 0.22-0.393 0.266-0.653 0.12-0.513-0.28-1.059-0.506-1.551-0.812-2.297-1.445-4.221-3.303-5.926-5.393-0.846-1.039-1.598-2.151-2.124-3.402-0.107-0.253-0.087-0.419 0.12-0.626 0.792-0.766 1.565-1.551 2.344-2.337 1.085-1.092 1.085-2.37-0.007-3.469-0.619-0.626-1.238-1.238-1.858-1.864-0.639-0.639-1.272-1.285-1.918-1.918-1.045-1.019-2.35-1.019-3.389 0.007-0.799 0.786-1.565 1.591-2.377 2.364-0.752 0.712-1.132 1.585-1.212 2.603-0.127 1.658 0.28 3.223 0.852 4.747 1.172 3.156 2.956 5.959 5.12 8.529 2.923 3.476 6.412 6.226 10.494 8.21 1.838 0.892 3.742 1.578 5.813 1.691 1.425 0.080 2.663-0.28 3.655-1.392 0.679-0.759 1.445-1.452 2.164-2.177 1.065-1.079 1.072-2.384 0.013-3.449-1.265-1.272-2.537-2.537-3.809-3.802z"></path>
    <path d="M24.203 15.667v0c0.739-0.127 1.205-0.872 0.985-1.591-0.526-1.718-1.458-3.269-2.743-4.561-1.372-1.372-3.043-2.337-4.881-2.843-0.726-0.2-1.458 0.286-1.565 1.025v0.007c-0.087 0.619 0.3 1.212 0.906 1.372 1.425 0.386 2.717 1.132 3.775 2.197 0.992 0.992 1.711 2.191 2.117 3.516 0.186 0.606 0.786 0.979 1.405 0.879z"></path>
    <path d="M26.9 5.18c-2.523-2.517-5.633-4.215-9.075-4.947-0.706-0.153-1.392 0.333-1.491 1.045v0.007c-0.093 0.646 0.326 1.252 0.965 1.392 2.976 0.639 5.666 2.104 7.844 4.275 2.051 2.051 3.482 4.581 4.168 7.364 0.153 0.633 0.779 1.032 1.418 0.925v0c0.712-0.12 1.172-0.826 0.999-1.525-0.806-3.236-2.457-6.159-4.827-8.536z"></path>
  </symbol>
  <symbol id="icon-testing" viewBox="0 0 32 32">
    <path d="M8.625 0c-4.756 0-8.625 3.869-8.625 8.625 0 4.331 3.212 7.925 7.375 8.531v13.594c0 0.688 0.563 1.25 1.25 1.25s1.25-0.563 1.25-1.25v-13.594c4.162-0.606 7.375-4.2 7.375-8.531 0-4.756-3.869-8.625-8.625-8.625zM8.625 14.75c-3.375 0-6.125-2.75-6.125-6.125s2.75-6.125 6.125-6.125 6.125 2.75 6.125 6.125-2.75 6.125-6.125 6.125zM11.619 9.944c0.306 0.619 0.056 1.369-0.556 1.675-0.619 0.306-1.369 0.056-1.675-0.556l-0.762-1.519-0.756 1.512c-0.306 0.619-1.063 0.869-1.675 0.556-0.619-0.306-0.869-1.063-0.556-1.675l1.875-3.75c0.463-0.919 1.775-0.919 2.237 0l1.869 3.756zM24.625 14.844v-13.531c0-0.688-0.563-1.25-1.25-1.25s-1.25 0.563-1.25 1.25v13.531c-4.163 0.606-7.375 4.2-7.375 8.531 0 4.756 3.869 8.625 8.625 8.625s8.625-3.869 8.625-8.625c0-4.331-3.212-7.925-7.375-8.531zM23.375 29.5c-3.375 0-6.125-2.75-6.125-6.125s2.75-6.125 6.125-6.125 6.125 2.75 6.125 6.125-2.75 6.125-6.125 6.125zM26.5 21.5c0 0.688-0.563 1.25-1.25 1.25h-3.75c-0.688 0-1.25-0.563-1.25-1.25s0.563-1.25 1.25-1.25h3.75c0.688 0 1.25 0.563 1.25 1.25zM26.5 25.25c0 0.688-0.563 1.25-1.25 1.25h-3.75c-0.688 0-1.25-0.563-1.25-1.25s0.563-1.25 1.25-1.25h3.75c0.688 0 1.25 0.563 1.25 1.25z"></path>
  </symbol>
  <symbol id="icon-trash" viewBox="0 0 32 32">
    <path d="M20.844 10.988v0c-0.694-0.025-1.275 0.512-1.3 1.206l-0.45 12.325c-0.025 0.694 0.512 1.275 1.206 1.3v0c0.694 0.025 1.275-0.512 1.3-1.206l0.45-12.325c0.025-0.694-0.512-1.275-1.206-1.3z"></path>
    <path d="M16 10.988v0c0.694 0 1.256 0.563 1.256 1.256v12.319c0 0.694-0.563 1.256-1.256 1.256v0c-0.694 0-1.256-0.563-1.256-1.256v-12.325c0-0.688 0.563-1.25 1.256-1.25z"></path>
    <path d="M12.906 24.519l-0.45-12.325c-0.025-0.694-0.606-1.231-1.3-1.206v0c-0.694 0.025-1.231 0.606-1.206 1.3l0.45 12.325c0.025 0.694 0.606 1.231 1.3 1.206v0c0.688-0.025 1.231-0.606 1.206-1.3z"></path>
    <path d="M1.087 6.056v0c0 0.694 0.563 1.256 1.256 1.256h1.356l2.075 23.544c0.056 0.65 0.6 1.144 1.25 1.144h17.913c0.65 0 1.194-0.494 1.25-1.144l2.075-23.544h1.4c0.694 0 1.256-0.563 1.256-1.256v0c0-0.694-0.563-1.256-1.256-1.256h-27.325c-0.688 0.006-1.25 0.563-1.25 1.256zM23.794 29.494h-15.625l-1.956-22.181h19.531l-1.95 22.181z"></path>
    <path d="M20.094 0h-8.188c-1.15 0-2.088 0.938-2.088 2.087v3.969h2.506v-3.55h7.35v3.55h2.506v-3.969c0-1.15-0.938-2.087-2.087-2.087z"></path>
  </symbol>
  <symbol id="icon-upload-file" viewBox="0 0 32 32">
    <path d="M29.434 17.749c-1.42 0-2.566 1.146-2.566 2.566v6.552h-21.727v-6.552c0-1.42-1.146-2.566-2.566-2.566s-2.566 1.146-2.566 2.566v9.118c0 1.42 1.146 2.566 2.566 2.566h26.859c1.42 0 2.566-1.146 2.566-2.566v-9.118c0-1.42-1.155-2.566-2.566-2.566z"></path>
    <path d="M10.573 11.625l2.866-2.866v9.563c0 1.42 1.146 2.566 2.566 2.566s2.566-1.146 2.566-2.566v-9.563l2.866 2.866c0.505 0.505 1.155 0.753 1.813 0.753s1.317-0.248 1.813-0.753c1.001-1.001 1.001-2.626 0-3.627l-7.245-7.245c-1.001-1.001-2.626-1.001-3.627 0l-7.254 7.245c-1.001 1.001-1.001 2.626 0 3.627 1.009 1.001 2.635 1.001 3.635 0z"></path>
  </symbol>
  <symbol id="icon-visitors" viewBox="0 0 32 32">
    <path d="M9.706 3.569c-3.219 0-5.844 2.775-5.844 6.194s2.619 6.194 5.844 6.194 5.844-2.775 5.844-6.194-2.619-6.194-5.844-6.194z"></path>
    <path d="M22.988 4.456c-0.012 0-0.025 0-0.038 0-1.35 0.013-2.613 0.581-3.556 1.606-0.925 1.006-1.425 2.338-1.413 3.744s0.538 2.725 1.475 3.719c0.95 1 2.206 1.55 3.544 1.55 0.012 0 0.025 0 0.038 0 1.35-0.012 2.613-0.581 3.556-1.606 0.925-1.006 1.425-2.338 1.413-3.744-0.025-2.912-2.275-5.269-5.019-5.269z"></path>
    <path d="M23.231 16.087h-0.481c-2.256 0-4.319 0.856-5.875 2.269 0.387 0.3 0.762 0.625 1.113 0.975 1.038 1.038 1.85 2.244 2.419 3.587 0.512 1.212 0.806 2.488 0.875 3.8h8.856c1.031 0 1.869-0.837 1.869-1.869v0c-0.006-4.837-3.931-8.762-8.775-8.762z"></path>
    <path d="M19.4 26.719c-0.175-2.85-1.619-5.356-3.775-6.962-1.569-1.169-3.513-1.863-5.619-1.863h-0.581c-5.206 0-9.425 4.219-9.425 9.419v0c0 0.619 0.5 1.119 1.119 1.119h17.181c0.619 0 1.119-0.5 1.119-1.119v0c-0.006-0.2-0.012-0.4-0.019-0.594z"></path>
  </symbol>
</svg>
