<?xml version="1.0" encoding="utf-8"?>
<!-- Generator: Adobe Illustrator 24.0.1, SVG Export Plug-In . SVG Version: 6.00 Build 0)  -->
<svg version="1.1" id="Capa_1" xmlns="http://www.w3.org/2000/svg" xmlns:xlink="http://www.w3.org/1999/xlink" x="0px" y="0px"
	 viewBox="0 0 561 561" style="enable-background:new 0 0 561 561;" xml:space="preserve">
<g>
	<g id="content-copy">
		<path d="M165.8,64.6 M471.8,90.1 M38.3,190.4v280.5c0,28,23,51,51,51h280.5c28.1,0,51-23,51-51V190.4c0-28.1-22.9-51-51-51H89.3
			C61.3,139.4,38.3,162.3,38.3,190.4z M77,178.1h305.2v305.2H77V178.1z"/>
	</g>
</g>
<path d="M185.1,39.1c-10.7,0-19.3,8.7-19.3,19.3v0c0,10.7,8.7,19.3,19.3,19.3h299v271.8c0,10.7,8.7,19.3,19.3,19.3h0
	c10.7,0,19.3-8.7,19.3-19.3V90.1c0-28-23-51-51-51H185.1z"/>
</svg>
