<?xml version="1.0" encoding="utf-8"?>
<!-- Generator: Adobe Illustrator 24.0.1, SVG Export Plug-In . SVG Version: 6.00 Build 0)  -->
<svg version="1.1" id="Layer_1" xmlns="http://www.w3.org/2000/svg" xmlns:xlink="http://www.w3.org/1999/xlink" x="0px" y="0px"
	 viewBox="0 0 512 512" style="enable-background:new 0 0 512 512;" xml:space="preserve">
<style type="text/css">
	.st0{stroke:#000000;stroke-width:8;stroke-miterlimit:10;}
</style>
<path class="st0" d="M512,492c0,11-9,20-20,20H256c-11,0-20-9-20-20s9-20,20-20h236C503,472,512,481,512,492z M492,393.3H334.7
	c-11,0-20,9-20,20s9,20,20,20H492c11,0,20-9,20-20S503,393.3,492,393.3z M492,314.7h-78.7c-11,0-20,9-20,20s9,20,20,20H492
	c11,0,20-9,20-20S503,314.7,492,314.7z M506.1,152.1l-354,354c-3.8,3.8-8.8,5.9-14.1,5.9H20c-11,0-20-9-20-20V374
	c0-5.3,2.1-10.4,5.9-14.1l354-354c7.8-7.8,20.5-7.8,28.3,0l118,118C514,131.7,514,144.3,506.1,152.1z M463.7,138L374,48.3l-334,334
	V472h89.7L463.7,138z"/>
</svg>
