<?xml version="1.0" encoding="utf-8"?>
<!-- Generator: Adobe Illustrator 23.1.0, SVG Export Plug-In . SVG Version: 6.00 Build 0)  -->
<svg version="1.1" id="Layer_1" xmlns="http://www.w3.org/2000/svg" xmlns:xlink="http://www.w3.org/1999/xlink" x="0px" y="0px"
	 viewBox="0 0 84 72" style="enable-background:new 0 0 84 72;" xml:space="preserve">
<style type="text/css">
	.st0{fill-rule:evenodd;clip-rule:evenodd;}
</style>
<path class="st0" d="M76.4,33.4l-5.3-20c0-0.1,0-0.2-0.1-0.3l0,0c-0.3-1.1-1-2-2-2.6c-0.9-0.5-2.1-0.7-3.2-0.4
	c-0.1,0-0.2,0.1-0.3,0.1l-20,5.3c-2.2,0.6-3.6,2.9-3,5.1c0.6,2.2,2.9,3.6,5.1,3l10.4-2.8l-17,29.5L30.6,39.5
	c-0.1-0.1-0.1-0.2-0.2-0.3h0c-0.8-0.8-1.9-1.3-3-1.3c-1.1,0-2.2,0.4-3,1.2c-0.1,0.1-0.1,0.2-0.2,0.3L9.4,53.9
	c-1.7,1.6-1.7,4.3-0.1,5.9c1.6,1.7,4.3,1.7,5.9,0.1l12-11.8l11.4,11.6c0.3,0.5,0.8,0.9,1.3,1.2c2,1.2,4.6,0.5,5.7-1.5l19.8-34.3
	l2.8,10.5c0.6,2.2,2.9,3.6,5.1,3C75.7,38,77,35.7,76.4,33.4z"/>
</svg>
