<svg id="Capa_1" enable-background="new 0 0 512 512" height="512" viewBox="0 0 512 512" width="512" xmlns="http://www.w3.org/2000/svg"><path d="m253 279.463c-27.57 0-50-22.43-50-50v-30h-183c-11.046 0-20 8.954-20 20v159c0 11.046 8.954 20 20 20h53v53.054c0 5.976 4.897 10.019 10.057 10.019 2.246 0 4.542-.766 6.505-2.473l69.7-60.601h99.738c11.046 0 20-8.954 20-20v-99h-26zm-193-25h82c8.284 0 15 6.716 15 15s-6.716 15-15 15h-82c-8.284 0-15-6.716-15-15s6.716-15 15-15zm159 90h-159c-8.284 0-15-6.716-15-15s6.716-15 15-15h159c8.284 0 15 6.716 15 15s-6.716 15-15 15z"/><path d="m492 50.463h-239c-11.046 0-20 8.954-20 20v159c0 11.046 8.954 20 20 20h99.739l69.7 60.601c1.963 1.707 4.259 2.473 6.505 2.473 5.159 0 10.057-4.044 10.057-10.019v-53.054h53c11.046 0 20-8.954 20-20v-159c-.001-11.046-8.955-20.001-20.001-20.001zm-199 55h82c8.284 0 15 6.716 15 15s-6.716 15-15 15h-82c-8.284 0-15-6.716-15-15s6.716-15 15-15zm159 90h-159c-8.284 0-15-6.716-15-15s6.716-15 15-15h159c8.284 0 15 6.716 15 15s-6.716 15-15 15z"/></svg>