<?xml version="1.0" encoding="utf-8"?>
<!-- Generator: Adobe Illustrator 23.1.0, SVG Export Plug-In . SVG Version: 6.00 Build 0)  -->
<svg version="1.1" id="Capa_1" xmlns="http://www.w3.org/2000/svg" xmlns:xlink="http://www.w3.org/1999/xlink" x="0px" y="0px"
	 viewBox="0 0 480.6 480.6" style="enable-background:new 0 0 480.6 480.6;" xml:space="preserve">
<g>
	<g>
		<path d="M365.4,317.9c-15.7-15.5-35.3-15.5-50.9,0c-11.9,11.8-23.8,23.6-35.5,35.6c-3.2,3.3-5.9,4-9.8,1.8
			c-7.7-4.2-15.9-7.6-23.3-12.2c-34.5-21.7-63.4-49.6-89-81c-12.7-15.6-24-32.3-31.9-51.1c-1.6-3.8-1.3-6.3,1.8-9.4
			c11.9-11.5,23.5-23.3,35.2-35.1c16.3-16.4,16.3-35.6-0.1-52.1c-9.3-9.4-18.6-18.6-27.9-28c-9.6-9.6-19.1-19.3-28.8-28.8
			c-15.7-15.3-35.3-15.3-50.9,0.1c-12,11.8-23.5,23.9-35.7,35.5C7.3,103.9,1.6,117,0.4,132.3c-1.9,24.9,4.2,48.4,12.8,71.3
			c17.6,47.4,44.4,89.5,76.9,128.1c43.9,52.2,96.3,93.5,157.6,123.3c27.6,13.4,56.2,23.7,87.3,25.4c21.4,1.2,40-4.2,54.9-20.9
			c10.2-11.4,21.7-21.8,32.5-32.7c16-16.2,16.1-35.8,0.2-51.8C403.6,355.9,384.5,336.9,365.4,317.9z"/>
		<path d="M363.5,235.3L363.5,235.3c11.1-1.9,18.1-13.1,14.8-23.9c-7.9-25.8-21.9-49.1-41.2-68.5c-20.6-20.6-45.7-35.1-73.3-42.7
			c-10.9-3-21.9,4.3-23.5,15.4l0,0.1c-1.3,9.3,4.5,18.2,13.6,20.6c21.4,5.8,40.8,17,56.7,33c14.9,14.9,25.7,32.9,31.8,52.8
			C345.2,231.2,354.2,236.8,363.5,235.3z"/>
		<path d="M404,77.8C366.1,40,319.4,14.5,267.7,3.5c-10.6-2.3-20.9,5-22.4,15.7l0,0.1c-1.4,9.7,4.9,18.8,14.5,20.9
			c44.7,9.6,85.1,31.6,117.8,64.2c30.8,30.8,52.3,68.8,62.6,110.6c2.3,9.5,11.7,15.5,21.3,13.9h0c10.7-1.8,17.6-12.4,15-22.9
			C464.4,157.4,439.6,113.5,404,77.8z"/>
	</g>
</g>
</svg>
