<?xml version="1.0" encoding="utf-8"?>
<!-- Generator: Adobe Illustrator 24.0.1, SVG Export Plug-In . SVG Version: 6.00 Build 0)  -->
<svg version="1.1" id="Capa_1" xmlns="http://www.w3.org/2000/svg" xmlns:xlink="http://www.w3.org/1999/xlink" x="0px" y="0px"
	 viewBox="0 0 512 512" style="enable-background:new 0 0 512 512;" xml:space="preserve">
<g>
	<g>
		<g>
			<path d="M333.5,175.8L333.5,175.8c-11.1-0.4-20.4,8.2-20.8,19.3l-7.2,197.2c-0.4,11.1,8.2,20.4,19.3,20.8l0,0
				c11.1,0.4,20.4-8.2,20.8-19.3l7.2-197.2C353.2,185.5,344.6,176.2,333.5,175.8z"/>
			<path d="M256,175.8L256,175.8c11.1,0,20.1,9,20.1,20.1V393c0,11.1-9,20.1-20.1,20.1l0,0c-11.1,0-20.1-9-20.1-20.1V195.8
				C235.9,184.8,244.9,175.8,256,175.8z"/>
			<path d="M206.5,392.3l-7.2-197.2c-0.4-11.1-9.7-19.7-20.8-19.3l0,0c-11.1,0.4-19.7,9.7-19.3,20.8l7.2,197.2
				c0.4,11.1,9.7,19.7,20.8,19.3l0,0C198.2,412.7,206.9,403.4,206.5,392.3z"/>
			<path d="M17.4,96.9L17.4,96.9c0,11.1,9,20.1,20.1,20.1h21.7l33.2,376.7c0.9,10.4,9.6,18.3,20,18.3H399c10.4,0,19.1-7.9,20-18.3
				L452.2,117h22.4c11.1,0,20.1-9,20.1-20.1l0,0c0-11.1-9-20.1-20.1-20.1H37.4C26.4,76.9,17.4,85.8,17.4,96.9z M380.7,471.9h-250
				L99.4,117h312.5L380.7,471.9z"/>
		</g>
	</g>
</g>
<g>
	<g>
		<path d="M321.5,0h-131c-18.4,0-33.4,15-33.4,33.4v63.5h40.1V40.1h117.6v56.8h40.1V33.4C354.9,15,339.9,0,321.5,0z"/>
	</g>
</g>
</svg>
