<?xml version="1.0" encoding="utf-8"?>
<!-- Generator: Adobe Illustrator 24.0.2, SVG Export Plug-In . SVG Version: 6.00 Build 0)  -->
<svg version="1.1" id="Capa_1" xmlns="http://www.w3.org/2000/svg" xmlns:xlink="http://www.w3.org/1999/xlink" x="0px" y="0px"
	 viewBox="0 0 374.1 374.1" style="enable-background:new 0 0 374.1 374.1;" xml:space="preserve">
<g>
	<path d="M344.1,207.5c-16.6,0-30,13.4-30,30v76.6h-254v-76.6c0-16.6-13.4-30-30-30s-30,13.4-30,30v106.6c0,16.6,13.4,30,30,30h314
		c16.6,0,30-13.4,30-30V237.5C374.1,220.9,360.6,207.5,344.1,207.5z"/>
	<path d="M123.6,135.9l33.5-33.5v111.8c0,16.6,13.4,30,30,30s30-13.4,30-30V102.4l33.5,33.5c5.9,5.9,13.5,8.8,21.2,8.8
		s15.4-2.9,21.2-8.8c11.7-11.7,11.7-30.7,0-42.4L208.3,8.8c-11.7-11.7-30.7-11.7-42.4,0L81.1,93.5c-11.7,11.7-11.7,30.7,0,42.4
		C92.9,147.6,111.9,147.6,123.6,135.9z"/>
</g>
</svg>
